<svg width="64" height="64" viewBox="0 0 64 64" fill="none" xmlns="http://www.w3.org/2000/svg">
<rect x="0.5" y="0.5" width="63" height="63" rx="31.5" stroke="#0F4822"/>
<path d="M40.9471 28.305C40.937 27.5476 40.7952 26.7977 40.5281 26.089C40.2964 25.4911 39.9426 24.9482 39.4892 24.4948C39.0359 24.0414 38.4929 23.6876 37.8951 23.456C37.1954 23.1933 36.4562 23.0513 35.7091 23.036C34.7471 22.993 34.4421 22.981 32.0001 22.981C29.5581 22.981 29.2451 22.981 28.2901 23.036C27.5432 23.0514 26.8044 23.1934 26.1051 23.456C25.5071 23.6874 24.9641 24.0412 24.5107 24.4946C24.0573 24.948 23.7036 25.491 23.4721 26.089C23.2089 26.7881 23.0672 27.5271 23.0531 28.274C23.0101 29.237 22.9971 29.542 22.9971 31.984C22.9971 34.426 22.9971 34.738 23.0531 35.694C23.0681 36.442 23.2091 37.18 23.4721 37.881C23.7039 38.4787 24.058 39.0215 24.5115 39.4747C24.965 39.9279 25.5081 40.2815 26.1061 40.513C26.8035 40.7862 27.5424 40.9383 28.2911 40.963C29.2541 41.006 29.5591 41.019 32.0011 41.019C34.4431 41.019 34.7561 41.019 35.7111 40.963C36.4582 40.9482 37.1974 40.8066 37.8971 40.544C38.4948 40.312 39.0376 39.9581 39.4909 39.5048C39.9442 39.0515 40.2982 38.5086 40.5301 37.911C40.7931 37.211 40.9341 36.473 40.9491 35.724C40.9921 34.762 41.0051 34.457 41.0051 32.014C41.0031 29.572 41.0031 29.262 40.9471 28.305ZM31.9941 36.602C29.4401 36.602 27.3711 34.533 27.3711 31.979C27.3711 29.425 29.4401 27.356 31.9941 27.356C33.2202 27.356 34.396 27.843 35.263 28.71C36.13 29.577 36.6171 30.7529 36.6171 31.979C36.6171 33.2051 36.13 34.3809 35.263 35.2479C34.396 36.1149 33.2202 36.602 31.9941 36.602ZM36.8011 28.263C36.2041 28.263 35.7231 27.781 35.7231 27.185C35.7231 27.0435 35.7509 26.9033 35.8051 26.7726C35.8592 26.6419 35.9386 26.5231 36.0387 26.423C36.1387 26.323 36.2575 26.2436 36.3882 26.1895C36.519 26.1353 36.6591 26.1075 36.8006 26.1075C36.9421 26.1075 37.0822 26.1353 37.2129 26.1895C37.3436 26.2436 37.4624 26.323 37.5625 26.423C37.6625 26.5231 37.7419 26.6419 37.7961 26.7726C37.8502 26.9033 37.8781 27.0435 37.8781 27.185C37.8781 27.781 37.3961 28.263 36.8011 28.263Z" fill="#0F4822"/>
<path d="M31.9942 34.9821C33.6527 34.9821 34.9972 33.6376 34.9972 31.9791C34.9972 30.3206 33.6527 28.9761 31.9942 28.9761C30.3357 28.9761 28.9912 30.3206 28.9912 31.9791C28.9912 33.6376 30.3357 34.9821 31.9942 34.9821Z" fill="#0F4822"/>
</svg>
