<svg width="64" height="64" viewBox="0 0 64 64" fill="none" xmlns="http://www.w3.org/2000/svg">
<rect x="0.5" y="0.5" width="63" height="63" rx="31.5" stroke="#0F4822"/>
<path d="M24.9829 27.197C26.1913 27.197 27.1709 26.2174 27.1709 25.009C27.1709 23.8006 26.1913 22.821 24.9829 22.821C23.7745 22.821 22.7949 23.8006 22.7949 25.009C22.7949 26.2174 23.7745 27.197 24.9829 27.197Z" fill="#0F4822"/>
<path d="M29.2369 28.855V40.994H33.0059V34.991C33.0059 33.407 33.3039 31.873 35.2679 31.873C37.2049 31.873 37.2289 33.684 37.2289 35.091V40.995H40.9999V34.338C40.9999 31.068 40.2959 28.555 36.4739 28.555C34.6389 28.555 33.4089 29.562 32.9059 30.515H32.8549V28.855H29.2369ZM23.0949 28.855H26.8699V40.994H23.0949V28.855Z" fill="#0F4822"/>
</svg>
