<svg xmlns="http://www.w3.org/2000/svg" xmlns:xlink="http://www.w3.org/1999/xlink" width="828" zoomAndPan="magnify" viewBox="0 0 621 367.499994" height="490" preserveAspectRatio="xMidYMid meet" version="1.0"><defs><g/><clipPath id="ae0b919c6f"><path d="M 253 226 L 371 226 L 371 260.195312 L 253 260.195312 Z M 253 226 " clip-rule="nonzero"/></clipPath><clipPath id="7f6145bfba"><path d="M 216.046875 173 L 265 173 L 265 190 L 216.046875 190 Z M 216.046875 173 " clip-rule="nonzero"/></clipPath></defs><path fill="#44624a" d="M 353.257812 124.074219 C 351.410156 126.34375 349.433594 128.546875 347.730469 130.90625 C 345.496094 134.007812 343.648438 137.34375 341.300781 140.367188 C 339.644531 142.492188 337.5625 144.402344 335.417969 146.125 C 333.246094 147.875 330.660156 148.050781 328.214844 146.417969 C 326.023438 144.949219 323.65625 144.332031 320.914062 144.285156 C 319.085938 144.246094 317.292969 143.433594 315.445312 143.117188 C 310.003906 142.199219 304.582031 141.894531 299.109375 143.15625 C 297.191406 143.597656 295.070312 143.65625 293.09375 143.441406 C 291.96875 143.324219 290.566406 142.542969 289.960938 141.671875 C 286.066406 136.101562 280.652344 131.511719 277.550781 125.433594 C 277.082031 124.515625 276.210938 123.773438 275.488281 122.902344 C 273.207031 123.3125 272.921875 125.015625 272.101562 126.355469 C 269.695312 130.261719 267.207031 134.117188 264.730469 137.972656 C 264.222656 138.773438 263.636719 139.527344 263.078125 140.300781 C 260.691406 143.589844 258.390625 146.9375 255.875 150.144531 C 255.054688 151.191406 253.769531 151.957031 252.605469 152.738281 C 251.324219 153.601562 249.964844 154.550781 248.308594 153.304688 C 246.65625 152.0625 246.019531 150.457031 246.988281 148.695312 C 248.742188 145.507812 250.082031 141.855469 252.703125 139.398438 C 256.167969 136.152344 258.078125 132.167969 260.574219 128.5 C 263.292969 124.476562 265.210938 119.992188 267.363281 115.660156 C 268.078125 114.21875 268.410156 112.625 268.921875 111.097656 C 270.046875 107.691406 273.792969 106.683594 276.691406 109.054688 C 277.113281 109.40625 277.503906 109.835938 277.765625 110.296875 C 280.195312 114.496094 282.550781 118.730469 285.027344 122.921875 C 285.898438 124.398438 286.917969 125.835938 288.0625 127.148438 C 289.324219 128.597656 291.046875 129.730469 292.144531 131.257812 C 293.464844 133.097656 295.167969 133.332031 297.328125 133.410156 C 304.699219 133.703125 312.066406 134.125 319.417969 134.652344 C 321.257812 134.78125 323.066406 135.417969 324.859375 135.9375 C 329.28125 137.238281 331.679688 136.53125 334.027344 132.941406 C 338.050781 126.785156 342.015625 120.621094 347.632812 115.492188 C 349.019531 114.21875 349.648438 112.28125 350.773438 110.734375 C 353.082031 107.535156 355.832031 107.242188 358.503906 110.179688 C 359.738281 111.539062 360.46875 113.386719 361.007812 115.128906 C 363.152344 122.011719 365.050781 128.957031 367.183594 135.839844 C 368.09375 138.765625 369.386719 141.59375 370.421875 144.488281 C 370.777344 145.488281 371.117188 146.5625 371.058594 147.589844 C 370.933594 149.890625 368.996094 151.066406 366.546875 150.546875 C 364.269531 150.066406 362.535156 148.941406 361.839844 146.835938 C 360.019531 141.257812 358.289062 135.660156 356.476562 130.082031 C 355.839844 128.117188 355.089844 126.1875 354.394531 124.242188 C 354.003906 124.183594 353.628906 124.132812 353.257812 124.074219 Z M 353.257812 124.074219 " fill-opacity="1" fill-rule="nonzero"/><g clip-path="url(#ae0b919c6f)"><path fill="#44624a" d="M 325.367188 259.664062 C 322.792969 259.847656 320.210938 260.046875 317.625 260.203125 C 316.914062 260.242188 316.160156 260.25 315.464844 260.09375 C 309.179688 258.617188 302.917969 257.070312 296.636719 255.613281 C 293.699219 254.925781 290.605469 254.691406 287.808594 253.722656 C 282.277344 251.804688 276.847656 249.601562 271.484375 247.3125 C 269.546875 246.492188 267.796875 245.21875 266.140625 243.9375 C 262.929688 241.453125 259.769531 238.90625 256.777344 236.214844 C 255.570312 235.128906 254.730469 233.640625 253.96875 232.222656 C 253 230.414062 253.507812 228.003906 254.808594 227.054688 C 256.101562 226.105469 258.457031 226.398438 260.40625 227.808594 C 261.089844 228.296875 261.757812 228.835938 262.304688 229.453125 C 266.875 234.648438 272.589844 238.398438 279.429688 240.589844 C 285.429688 242.507812 291.527344 244.179688 297.574219 246 C 305.597656 248.429688 314.0625 248.554688 322.304688 249.777344 C 325.574219 250.257812 329.292969 249.503906 332.519531 248.535156 C 340.074219 246.277344 347.503906 243.644531 354.882812 240.941406 C 356.839844 240.226562 358.484375 238.742188 360.207031 237.535156 C 363.320312 235.363281 364.914062 235.433594 367.742188 237.96875 C 370.421875 240.375 371.039062 243.554688 368.886719 245.816406 C 366.890625 247.917969 364.53125 249.691406 361.28125 250.074219 C 360.167969 250.210938 358.992188 250.445312 357.996094 250.90625 C 354.539062 252.488281 351.253906 254.417969 347.710938 255.796875 C 340.625 258.546875 333.128906 259.867188 325.367188 259.664062 Z M 325.367188 259.664062 " fill-opacity="1" fill-rule="nonzero"/></g><path fill="#44624a" d="M 315.082031 224.363281 C 313.09375 225.058594 311.226562 225.714844 309.355469 226.371094 C 306.597656 227.339844 303.957031 227.242188 301.507812 225.597656 C 299.863281 224.5 299.050781 222.28125 299.570312 220.65625 C 300.128906 218.902344 301.683594 218.738281 303.320312 218.484375 C 304.855469 218.246094 306.546875 218.03125 307.832031 217.296875 C 311.226562 215.359375 311.355469 211.867188 308.476562 209.390625 C 307.125 208.226562 305.785156 206.945312 304.875 205.496094 C 303.378906 203.128906 303.847656 201.316406 305.941406 199.390625 C 308.800781 196.765625 315.25 196.152344 318.535156 198.195312 C 321.472656 200.027344 322.511719 203.265625 320.796875 206.269531 C 318.78125 209.792969 318.613281 213.421875 319.742188 217.101562 C 320.660156 220.097656 322.363281 220.773438 325.652344 219.929688 C 329.3125 218.992188 330.828125 219.550781 331.828125 222.230469 C 333.097656 225.636719 332.394531 227.4375 329.164062 228.789062 C 325.199219 230.453125 321.511719 229.855469 318.183594 227.398438 C 317.1875 226.664062 316.402344 225.675781 315.082031 224.363281 Z M 315.082031 224.363281 " fill-opacity="1" fill-rule="nonzero"/><g clip-path="url(#7f6145bfba)"><path fill="#44624a" d="M 258.929688 189.386719 C 254.828125 188.585938 250.738281 187.785156 246.636719 186.992188 C 238.152344 185.347656 229.667969 183.691406 221.171875 182.058594 C 217.984375 181.453125 216.582031 179.496094 216.28125 176.707031 C 216.015625 174.289062 217.113281 173.132812 219.734375 173.300781 C 221.449219 173.40625 223.140625 173.859375 224.84375 174.152344 C 235.089844 175.902344 245.355469 177.585938 255.582031 179.445312 C 258.832031 180.03125 262.070312 180.804688 263.519531 184.25 C 264.886719 187.507812 264.007812 189.125 260.277344 189.28125 C 259.847656 189.300781 259.40625 189.230469 258.976562 189.203125 C 258.957031 189.261719 258.949219 189.328125 258.929688 189.386719 Z M 258.929688 189.386719 " fill-opacity="1" fill-rule="nonzero"/></g><path fill="#44624a" d="M 384.867188 193.402344 C 383.714844 193.402344 382.460938 193.65625 381.421875 193.332031 C 380.308594 192.980469 378.808594 192.234375 378.554688 191.394531 C 378.3125 190.613281 379.210938 189.085938 380.09375 188.546875 C 381.746094 187.539062 383.675781 186.726562 385.601562 186.324219 C 393.617188 184.691406 401.691406 183.273438 409.726562 181.707031 C 413.679688 180.941406 417.613281 180.070312 421.535156 179.191406 C 423.5625 178.730469 425.207031 179.09375 426.578125 180.609375 C 427.761719 181.929688 427.703125 183.351562 426.910156 184.691406 C 426.46875 185.425781 425.636719 186.140625 424.796875 186.460938 C 423.210938 187.070312 421.507812 187.507812 419.816406 187.8125 C 411.878906 189.222656 403.929688 190.59375 395.976562 191.921875 C 392.304688 192.539062 388.605469 193.058594 384.925781 193.625 C 384.90625 193.558594 384.886719 193.480469 384.867188 193.402344 Z M 384.867188 193.402344 " fill-opacity="1" fill-rule="nonzero"/><path fill="#44624a" d="M 384.808594 201.464844 C 393.226562 202.53125 401.652344 203.539062 410.046875 204.714844 C 412.015625 204.988281 413.921875 205.75 415.78125 206.457031 C 418.015625 207.296875 419.695312 211.652344 418.707031 213.679688 C 417.976562 215.195312 416.015625 215.949219 413.882812 215.164062 C 407.082031 212.648438 399.910156 212.171875 392.726562 211.457031 C 389.652344 211.152344 386.6875 209.832031 383.695312 208.929688 C 383.15625 208.773438 382.625 208.480469 382.207031 208.140625 C 380.886719 207.0625 379.582031 205.886719 380.25 204.066406 C 380.964844 202.109375 382.695312 201.589844 384.808594 201.464844 Z M 384.808594 201.464844 " fill-opacity="1" fill-rule="nonzero"/><path fill="#44624a" d="M 259.585938 197.992188 C 260.5625 198.429688 262.363281 198.96875 263.78125 199.96875 C 265.386719 201.09375 266.785156 202.71875 266.179688 204.742188 C 265.59375 206.691406 263.507812 206.875 261.628906 207.21875 C 253.417969 208.6875 245.226562 210.242188 237.007812 211.671875 C 235.636719 211.90625 234.109375 211.859375 232.761719 211.542969 C 230.636719 211.046875 229.167969 209 229.148438 207.0625 C 229.128906 205.171875 230.128906 204.027344 232.917969 203.410156 C 240.921875 201.652344 248.957031 200.015625 256.980469 198.34375 C 257.546875 198.226562 258.125 198.1875 259.585938 197.992188 Z M 259.585938 197.992188 " fill-opacity="1" fill-rule="nonzero"/><path fill="#44624a" d="M 352.269531 181.511719 C 352.191406 182.304688 352.183594 183.105469 352.035156 183.878906 C 351.253906 188.15625 347.621094 190.574219 343.148438 189.820312 C 337.445312 188.859375 334.714844 185.71875 335.152344 181.21875 C 335.46875 177.976562 337.660156 175.960938 339.878906 173.90625 C 340.515625 173.320312 341.660156 172.996094 342.609375 172.898438 C 347.296875 172.417969 352.5625 177.175781 352.269531 181.511719 Z M 352.269531 181.511719 " fill-opacity="1" fill-rule="nonzero"/><path fill="#44624a" d="M 303.914062 176.421875 C 303.738281 181.109375 299.726562 185.25 295.585938 185.015625 C 290.507812 184.71875 286.75 181.363281 286.9375 177.273438 C 287.152344 172.710938 290.664062 169.796875 295.714844 170 C 300.773438 170.21875 304.054688 172.78125 303.914062 176.421875 Z M 303.914062 176.421875 " fill-opacity="1" fill-rule="nonzero"/><g fill="#44624a" fill-opacity="1"><g transform="translate(65.10285, 244.515103)"><g><path d="M 114.542969 -33.242188 C 103.144531 -42.550781 91.75 -51.667969 80.160156 -60.976562 C 74.84375 -65.15625 69.523438 -69.335938 64.207031 -73.703125 C 63.445312 -74.273438 62.875 -74.84375 61.925781 -75.601562 L 58.695312 -78.453125 L 64.394531 -83.390625 C 67.246094 -85.671875 69.714844 -87.761719 72.375 -89.847656 C 76.550781 -93.078125 80.542969 -96.308594 84.53125 -99.539062 C 92.320312 -105.617188 100.488281 -111.882812 108.273438 -118.53125 C 115.113281 -124.230469 116.632812 -132.589844 111.882812 -138.476562 C 107.324219 -144.367188 99.347656 -144.746094 91.367188 -139.429688 L 90.988281 -139.238281 C 90.609375 -138.859375 90.039062 -138.667969 89.660156 -138.289062 L 40.839844 -94.027344 C 40.269531 -93.648438 39.699219 -93.269531 38.941406 -92.699219 L 34.953125 -89.847656 L 34.570312 -93.269531 C 34.191406 -95.167969 34.003906 -96.878906 34.003906 -98.585938 C 33.621094 -102.007812 33.242188 -105.234375 32.863281 -108.273438 L 32.101562 -113.023438 C 31.152344 -119.101562 30.394531 -125.5625 28.875 -131.640625 C 27.734375 -136.390625 24.3125 -139.238281 19.566406 -139.238281 C 14.816406 -139.429688 11.398438 -136.769531 9.6875 -131.449219 C 8.546875 -127.652344 7.789062 -124.421875 7.789062 -121.570312 L 7.789062 -119.671875 C 7.410156 -90.230469 6.839844 -59.835938 7.027344 -30.011719 C 7.027344 -24.695312 8.167969 -18.804688 10.636719 -12.347656 C 12.726562 -6.839844 18.425781 -3.417969 24.503906 -4.179688 C 30.773438 -4.9375 35.332031 -9.496094 36.472656 -15.957031 C 37.042969 -19.1875 37.042969 -22.605469 37.042969 -25.835938 L 37.042969 -26.972656 C 37.230469 -34.191406 37.230469 -41.410156 37.230469 -48.4375 L 37.230469 -57.9375 L 41.601562 -60.976562 L 42.738281 -59.078125 C 42.929688 -58.507812 43.308594 -58.125 43.5 -57.558594 C 43.878906 -56.796875 44.449219 -55.847656 45.019531 -55.277344 C 51.289062 -47.867188 57.558594 -40.460938 64.015625 -33.050781 L 69.902344 -26.023438 C 78.640625 -15.765625 87.378906 -9.117188 97.257812 -5.128906 C 106.945312 -1.140625 115.683594 -3.230469 120.242188 -10.636719 C 124.421875 -18.046875 122.332031 -26.785156 114.542969 -33.242188 Z M 114.542969 -33.242188 "/></g></g></g><g fill="#44624a" fill-opacity="1"><g transform="translate(438.700477, 244.515103)"><g><path d="M 107.707031 -139.808594 C 106.1875 -140.1875 104.667969 -140.566406 102.957031 -140.757812 C 96.496094 -141.519531 90.039062 -141.898438 83.582031 -141.898438 C 70.472656 -141.898438 57.367188 -140.566406 44.640625 -139.046875 C 36.660156 -138.289062 28.492188 -137.339844 20.324219 -136.769531 C 20.136719 -136.769531 19.945312 -136.578125 19.566406 -136.578125 L 18.996094 -136.390625 C 11.015625 -134.109375 6.648438 -129.359375 7.027344 -122.710938 C 7.21875 -116.445312 11.585938 -112.074219 19.566406 -110.175781 C 21.464844 -109.792969 23.363281 -109.605469 25.453125 -109.414062 C 29.824219 -108.84375 34.191406 -108.464844 38.5625 -108.085938 L 44.828125 -107.324219 L 45.019531 -104.097656 C 45.019531 -103.144531 45.019531 -102.386719 45.019531 -101.4375 C 45.019531 -94.789062 44.828125 -88.140625 44.640625 -81.492188 C 44.261719 -65.15625 44.070312 -48.4375 44.070312 -31.914062 C 44.070312 -26.023438 45.210938 -19.566406 47.488281 -13.675781 C 49.769531 -7.789062 54.898438 -4.367188 61.734375 -4.367188 C 68.382812 -4.367188 73.511719 -7.789062 75.792969 -14.058594 C 77.691406 -18.804688 78.640625 -23.933594 78.453125 -28.492188 C 78.070312 -41.03125 76.742188 -53.378906 75.601562 -63.824219 C 74.464844 -73.511719 73.132812 -83.199219 71.804688 -93.269531 C 71.042969 -97.828125 70.472656 -102.578125 69.902344 -107.324219 L 69.523438 -109.605469 L 87 -109.605469 C 88.898438 -109.605469 90.800781 -109.605469 92.699219 -109.414062 C 96.6875 -109.414062 101.058594 -109.414062 105.046875 -109.605469 C 113.214844 -110.363281 119.292969 -115.875 120.050781 -123.472656 C 120.621094 -130.878906 115.875 -137.339844 107.707031 -139.808594 Z M 107.707031 -139.808594 "/></g></g></g></svg>