<svg xmlns="http://www.w3.org/2000/svg" xmlns:xlink="http://www.w3.org/1999/xlink" width="448" zoomAndPan="magnify" viewBox="0 0 336 335.999987" height="448" preserveAspectRatio="xMidYMid meet" version="1.0"><defs><clipPath id="44d7dec520"><path d="M 0 0 L 335.5625 0 L 335.5625 335.5625 L 0 335.5625 Z M 0 0 " clip-rule="nonzero"/></clipPath><clipPath id="28a07ed264"><path d="M 167.78125 0 C 75.117188 0 0 75.117188 0 167.78125 C 0 260.445312 75.117188 335.5625 167.78125 335.5625 C 260.445312 335.5625 335.5625 260.445312 335.5625 167.78125 C 335.5625 75.117188 260.445312 0 167.78125 0 Z M 167.78125 0 " clip-rule="nonzero"/></clipPath><clipPath id="9856a8092b"><path d="M 94 213 L 220 213 L 220 249.9375 L 94 249.9375 Z M 94 213 " clip-rule="nonzero"/></clipPath><clipPath id="df79dc8ee7"><path d="M 54.617188 156 L 107 156 L 107 175 L 54.617188 175 Z M 54.617188 156 " clip-rule="nonzero"/></clipPath></defs><g clip-path="url(#44d7dec520)"><g clip-path="url(#28a07ed264)"><path fill="#ffffff" d="M 0 0 L 335.5625 0 L 335.5625 335.5625 L 0 335.5625 Z M 0 0 " fill-opacity="1" fill-rule="nonzero"/></g></g><path fill="#006414" d="M 201.257812 104.300781 C 199.28125 106.730469 197.167969 109.082031 195.347656 111.601562 C 192.964844 114.917969 190.988281 118.484375 188.476562 121.714844 C 186.710938 123.984375 184.480469 126.023438 182.191406 127.867188 C 179.871094 129.738281 177.109375 129.925781 174.492188 128.179688 C 172.152344 126.609375 169.621094 125.953125 166.691406 125.898438 C 164.734375 125.859375 162.820312 124.988281 160.84375 124.65625 C 155.03125 123.671875 149.238281 123.347656 143.390625 124.695312 C 141.339844 125.167969 139.070312 125.230469 136.957031 125 C 135.753906 124.875 134.257812 124.039062 133.609375 123.105469 C 129.449219 117.15625 123.664062 112.25 120.351562 105.757812 C 119.847656 104.773438 118.917969 103.976562 118.144531 103.046875 C 115.707031 103.488281 115.402344 105.304688 114.523438 106.738281 C 111.953125 110.914062 109.296875 115.03125 106.648438 119.152344 C 106.105469 120.011719 105.476562 120.816406 104.882812 121.644531 C 102.328125 125.15625 99.871094 128.734375 97.183594 132.164062 C 96.304688 133.285156 94.933594 134.097656 93.691406 134.9375 C 92.320312 135.855469 90.867188 136.871094 89.097656 135.542969 C 87.332031 134.214844 86.652344 132.5 87.6875 130.617188 C 89.558594 127.207031 90.992188 123.304688 93.796875 120.679688 C 97.496094 117.207031 99.535156 112.953125 102.203125 109.03125 C 105.113281 104.730469 107.160156 99.941406 109.460938 95.308594 C 110.226562 93.769531 110.582031 92.066406 111.125 90.433594 C 112.328125 86.792969 116.332031 85.71875 119.429688 88.25 C 119.878906 88.625 120.296875 89.085938 120.578125 89.578125 C 123.171875 94.0625 125.695312 98.59375 128.339844 103.066406 C 129.269531 104.648438 130.359375 106.183594 131.582031 107.585938 C 132.929688 109.132812 134.773438 110.347656 135.945312 111.980469 C 137.355469 113.945312 139.175781 114.195312 141.488281 114.28125 C 149.363281 114.59375 157.238281 115.042969 165.089844 115.609375 C 167.058594 115.746094 168.992188 116.425781 170.90625 116.976562 C 175.632812 118.371094 178.195312 117.617188 180.707031 113.777344 C 185.003906 107.199219 189.242188 100.609375 195.242188 95.128906 C 196.730469 93.769531 197.398438 91.699219 198.601562 90.046875 C 201.070312 86.628906 204.007812 86.3125 206.863281 89.453125 C 208.179688 90.90625 208.964844 92.882812 209.539062 94.742188 C 211.832031 102.09375 213.859375 109.519531 216.140625 116.875 C 217.113281 120 218.492188 123.023438 219.601562 126.117188 C 219.976562 127.1875 220.34375 128.335938 220.28125 129.433594 C 220.144531 131.890625 218.074219 133.148438 215.460938 132.59375 C 213.023438 132.082031 211.171875 130.878906 210.429688 128.628906 C 208.484375 122.667969 206.632812 116.683594 204.699219 110.722656 C 204.019531 108.621094 203.214844 106.5625 202.46875 104.480469 C 202.050781 104.417969 201.65625 104.363281 201.257812 104.300781 Z M 201.257812 104.300781 " fill-opacity="1" fill-rule="nonzero"/><g clip-path="url(#9856a8092b)"><path fill="#006414" d="M 171.449219 249.207031 C 168.699219 249.40625 165.9375 249.613281 163.175781 249.78125 C 162.414062 249.824219 161.609375 249.832031 160.867188 249.667969 C 154.152344 248.085938 147.457031 246.433594 140.742188 244.875 C 137.605469 244.144531 134.300781 243.894531 131.308594 242.859375 C 125.402344 240.808594 119.597656 238.453125 113.867188 236.007812 C 111.792969 235.128906 109.921875 233.769531 108.15625 232.398438 C 104.722656 229.742188 101.347656 227.023438 98.144531 224.148438 C 96.859375 222.988281 95.960938 221.398438 95.144531 219.878906 C 94.109375 217.945312 94.652344 215.371094 96.042969 214.359375 C 97.425781 213.34375 99.945312 213.65625 102.027344 215.164062 C 102.757812 215.6875 103.46875 216.261719 104.054688 216.921875 C 108.9375 222.472656 115.046875 226.480469 122.359375 228.824219 C 128.769531 230.871094 135.285156 232.660156 141.746094 234.605469 C 150.324219 237.199219 159.371094 237.335938 168.175781 238.644531 C 171.671875 239.15625 175.644531 238.351562 179.09375 237.316406 C 187.167969 234.898438 195.109375 232.085938 202.992188 229.199219 C 205.085938 228.4375 206.84375 226.847656 208.683594 225.558594 C 212.007812 223.238281 213.714844 223.3125 216.734375 226.019531 C 219.601562 228.59375 220.261719 231.992188 217.960938 234.40625 C 215.828125 236.65625 213.304688 238.550781 209.832031 238.957031 C 208.640625 239.101562 207.386719 239.355469 206.320312 239.847656 C 202.628906 241.539062 199.113281 243.601562 195.328125 245.074219 C 187.753906 248.015625 179.742188 249.425781 171.449219 249.207031 Z M 171.449219 249.207031 " fill-opacity="1" fill-rule="nonzero"/></g><path fill="#006414" d="M 160.457031 211.480469 C 158.335938 212.226562 156.335938 212.925781 154.339844 213.625 C 151.390625 214.660156 148.566406 214.558594 145.953125 212.800781 C 144.195312 211.628906 143.328125 209.253906 143.882812 207.519531 C 144.476562 205.644531 146.140625 205.46875 147.886719 205.195312 C 149.527344 204.945312 151.339844 204.714844 152.707031 203.929688 C 156.335938 201.859375 156.472656 198.125 153.398438 195.480469 C 151.957031 194.234375 150.523438 192.867188 149.550781 191.316406 C 147.949219 188.785156 148.453125 186.851562 150.691406 184.792969 C 153.742188 181.988281 160.636719 181.328125 164.148438 183.515625 C 167.289062 185.472656 168.398438 188.933594 166.566406 192.144531 C 164.410156 195.910156 164.234375 199.789062 165.4375 203.722656 C 166.417969 206.921875 168.238281 207.644531 171.753906 206.746094 C 175.664062 205.742188 177.285156 206.335938 178.351562 209.203125 C 179.710938 212.84375 178.960938 214.765625 175.507812 216.210938 C 171.273438 217.988281 167.328125 217.347656 163.773438 214.722656 C 162.707031 213.941406 161.871094 212.882812 160.457031 211.480469 Z M 160.457031 211.480469 " fill-opacity="1" fill-rule="nonzero"/><g clip-path="url(#df79dc8ee7)"><path fill="#006414" d="M 100.445312 174.101562 C 96.066406 173.246094 91.691406 172.386719 87.3125 171.539062 C 78.242188 169.785156 69.175781 168.015625 60.097656 166.269531 C 56.6875 165.621094 55.191406 163.53125 54.867188 160.546875 C 54.585938 157.964844 55.757812 156.730469 58.558594 156.910156 C 60.390625 157.023438 62.199219 157.503906 64.019531 157.820312 C 74.96875 159.691406 85.941406 161.488281 96.871094 163.476562 C 100.34375 164.105469 103.804688 164.929688 105.351562 168.613281 C 106.816406 172.09375 105.875 173.820312 101.890625 173.988281 C 101.429688 174.007812 100.960938 173.9375 100.5 173.90625 C 100.476562 173.96875 100.46875 174.039062 100.445312 174.101562 Z M 100.445312 174.101562 " fill-opacity="1" fill-rule="nonzero"/></g><path fill="#006414" d="M 235.039062 178.390625 C 233.804688 178.390625 232.464844 178.664062 231.355469 178.316406 C 230.164062 177.941406 228.566406 177.148438 228.292969 176.246094 C 228.03125 175.410156 228.992188 173.777344 229.933594 173.203125 C 231.703125 172.125 233.761719 171.257812 235.824219 170.828125 C 244.390625 169.082031 253.015625 167.566406 261.605469 165.894531 C 265.828125 165.078125 270.035156 164.148438 274.226562 163.207031 C 276.390625 162.714844 278.148438 163.101562 279.613281 164.722656 C 280.878906 166.132812 280.816406 167.648438 279.96875 169.082031 C 279.5 169.867188 278.609375 170.632812 277.710938 170.976562 C 276.015625 171.625 274.195312 172.09375 272.386719 172.417969 C 263.90625 173.925781 255.414062 175.390625 246.910156 176.8125 C 242.988281 177.472656 239.035156 178.023438 235.101562 178.632812 C 235.082031 178.558594 235.058594 178.476562 235.039062 178.390625 Z M 235.039062 178.390625 " fill-opacity="1" fill-rule="nonzero"/><path fill="#006414" d="M 234.976562 187.007812 C 243.96875 188.148438 252.976562 189.226562 261.949219 190.480469 C 264.050781 190.773438 266.089844 191.589844 268.078125 192.34375 C 270.460938 193.242188 272.261719 197.898438 271.203125 200.0625 C 270.421875 201.683594 268.328125 202.488281 266.046875 201.652344 C 258.78125 198.964844 251.113281 198.449219 243.4375 197.6875 C 240.152344 197.363281 236.984375 195.953125 233.785156 194.988281 C 233.207031 194.820312 232.644531 194.507812 232.195312 194.140625 C 230.78125 192.992188 229.390625 191.738281 230.101562 189.792969 C 230.867188 187.699219 232.71875 187.144531 234.976562 187.007812 Z M 234.976562 187.007812 " fill-opacity="1" fill-rule="nonzero"/><path fill="#006414" d="M 101.148438 183.296875 C 102.195312 183.765625 104.117188 184.34375 105.632812 185.410156 C 107.351562 186.613281 108.84375 188.347656 108.195312 190.511719 C 107.570312 192.59375 105.339844 192.792969 103.332031 193.160156 C 94.558594 194.726562 85.804688 196.390625 77.019531 197.917969 C 75.554688 198.167969 73.925781 198.117188 72.480469 197.78125 C 70.210938 197.25 68.640625 195.0625 68.621094 192.992188 C 68.601562 190.972656 69.667969 189.75 72.648438 189.089844 C 81.203125 187.207031 89.789062 185.460938 98.367188 183.671875 C 98.972656 183.546875 99.589844 183.503906 101.148438 183.296875 Z M 101.148438 183.296875 " fill-opacity="1" fill-rule="nonzero"/><path fill="#006414" d="M 200.199219 165.683594 C 200.117188 166.53125 200.105469 167.390625 199.949219 168.214844 C 199.113281 172.785156 195.234375 175.367188 190.453125 174.5625 C 184.355469 173.539062 181.4375 170.179688 181.910156 165.371094 C 182.242188 161.910156 184.585938 159.753906 186.960938 157.558594 C 187.640625 156.929688 188.863281 156.585938 189.878906 156.480469 C 194.886719 155.96875 200.515625 161.050781 200.199219 165.683594 Z M 200.199219 165.683594 " fill-opacity="1" fill-rule="nonzero"/><path fill="#006414" d="M 148.523438 160.246094 C 148.335938 165.253906 144.050781 169.679688 139.625 169.429688 C 134.195312 169.113281 130.179688 165.527344 130.378906 161.15625 C 130.609375 156.28125 134.363281 153.164062 139.761719 153.382812 C 145.167969 153.613281 148.671875 156.355469 148.523438 160.246094 Z M 148.523438 160.246094 " fill-opacity="1" fill-rule="nonzero"/></svg>