<svg width="375" height="365" viewBox="0 0 375 365" fill="none" xmlns="http://www.w3.org/2000/svg">
<g clip-path="url(#clip0_498_335)">
<path d="M72.3821 152.786C67.2053 153.514 59.8604 156.53 59.7986 161.718C59.7748 165.867 64.7459 166.566 68.796 166.498C80.0051 166.347 91.0645 166.897 101.439 169.275C124.476 174.533 143.095 188.647 156.263 207.054C169.43 225.46 177.299 248.121 181.968 272.027C182.622 275.353 185.285 279.228 188.412 276.666C189.436 275.855 189.995 274.567 190.434 273.412C193.148 266.724 195.093 259.766 196.209 252.603C204.522 268.985 211.278 283.379 229.64 289.337C243.845 293.954 262.078 293.539 276.824 282.195C281.677 278.437 286.371 272.332 285.036 267.441C283.693 262.424 276.77 262.243 271.346 264.775C265.924 267.307 261.011 271.728 255.566 274.418C244.552 279.868 232.953 276.928 225.885 270.062C218.816 263.196 215.461 252.981 212.828 242.757C218.553 246.335 222.109 252.737 222.613 260.219C222.879 264.509 223.992 270.512 228.358 268.762C230.636 267.882 232.028 265.196 232.94 262.915C237.582 250.685 238.043 237.273 234.185 224.76C230.699 213.295 224.327 203.655 217.57 194.446C199.818 170.323 178.629 148.904 153.048 133.323C130.425 119.557 107.883 107.829 76.658 113.175C71.6468 114.051 65.8949 115.752 62.6961 120.454C64.6469 126.255 72.321 126.394 78.6283 126.798C88.4678 127.447 108.761 124.467 109.905 137.35C111.3 153.079 80.4276 151.649 72.3821 152.786Z" fill="#F1EBE1"/>
<path d="M148.795 148.643C143.593 146.009 139.246 141.819 135.418 137.317C127.832 128.437 117.001 115.4 120.711 104.541C124.937 92.1773 137.913 86.3983 149.279 81.6198C156.435 78.6153 163.634 74.6328 171.623 73.6248C173.307 73.4052 175.253 73.3608 176.697 74.474C178.665 75.9992 178.664 78.8584 177.706 80.8602C174.461 87.6078 175.044 89.0837 179.838 96.2967C183.024 101.116 188.505 109.423 194.986 108.968C197.99 108.739 201.108 106.587 203.724 108.453C206.568 110.464 205.287 114.619 203.544 117.229C194.454 131.435 170.281 159.423 148.795 148.643Z" fill="#F1EBE1"/>
<path d="M179.216 118.265C177.873 116.108 175.062 115.259 172.622 115.457C169.871 115.735 167.843 117.136 166.165 119.209C165.987 119.407 166.005 119.721 166.202 119.898C166.368 120.046 166.588 120.065 166.769 119.93C169.072 118.356 175.724 116.448 177.03 120.24C178.338 124.032 173.381 125.911 171.325 127.941C170.37 128.875 171.514 130.256 172.628 129.943C177.216 128.809 182.208 122.97 179.216 118.265Z" fill="white"/>
<path d="M163.918 91.3345C162.459 89.3727 159.839 88.5755 157.466 88.8333C155.467 89.0696 151.796 90.3106 150.966 92.368C150.936 92.401 150.969 92.4305 151.002 92.46C152.301 92.6699 153.665 91.7457 154.868 91.3343C157.031 90.6486 159.423 90.1704 161.363 91.7278C163.467 93.4336 162.763 96.081 160.933 97.6594C159.435 98.9993 157.315 99.3058 155.946 100.702C155.35 101.301 155.933 102.179 156.655 102.17C161.569 102.401 167.278 95.8932 163.918 91.3345Z" fill="white"/>
<path d="M152.513 124.681C148.319 122.116 151.641 117.94 154.549 115.957C154.794 115.818 154.938 115.59 155.02 115.365L155.185 115.513C155.611 115.835 156.092 116.028 156.627 116.03C157.161 116.032 157.653 115.817 157.978 115.453C158.597 114.695 158.539 113.63 157.871 112.912C157.405 112.436 156.876 111.962 156.352 111.552C155.591 110.871 154.463 110.933 153.782 111.694C153.249 112.289 153.172 113.174 153.585 113.842C153.493 113.878 153.401 113.915 153.279 113.984C151.543 114.993 149.813 116.125 147.823 116.486C145.613 116.893 144.273 115.929 142.46 114.961C142.427 114.932 142.365 114.935 142.368 114.998L142.338 115.032C142.455 117.162 144.993 118.184 146.798 118.43C147.557 118.512 148.371 118.467 149.149 118.331C148.662 119.206 148.371 120.196 148.363 121.202C148.328 123.435 149.57 126.038 151.948 126.44C152.427 126.57 152.944 126.259 153.075 125.78C153.144 125.305 152.932 124.877 152.513 124.681Z" fill="white"/>
<path d="M173.217 143.58C172.231 142.22 170.942 141.066 169.835 139.777C168.727 138.486 167.982 136.925 166.763 135.894C166.631 135.775 166.443 135.785 166.324 135.918C166.265 135.984 166.269 136.047 166.243 136.142C166.46 137.827 167.615 139.398 168.508 140.794C169.441 142.344 170.711 143.719 172.15 144.77C172.837 145.266 173.659 144.216 173.217 143.58Z" fill="white"/>
<path d="M166.165 145.071C166.317 143.837 165.884 142.792 165.35 141.659C164.89 140.711 164.306 139.235 163.279 138.852C163.085 138.738 162.871 138.843 162.756 139.039C162.726 139.072 162.7 139.167 162.704 139.23C162.791 140.262 163.724 141.216 164.121 142.168C164.555 143.211 164.801 144.267 165.328 145.275C165.464 145.456 165.751 145.533 165.931 145.398C166.082 145.296 166.142 145.229 166.165 145.071Z" fill="white"/>
<path d="M141.223 95.2018C140.715 93.9732 140.145 92.748 139.487 91.6218C139.18 91.1671 138.576 91.0439 138.118 91.2887C138.026 91.3251 137.966 91.392 137.907 91.4579C137.611 91.7885 137.576 92.2935 137.817 92.6883C138.443 93.785 139.128 94.8158 139.69 95.9152C140.11 96.7092 140.302 97.8926 141.285 98.0583C141.443 98.0809 141.564 98.0114 141.654 97.9117C142.302 97.122 141.584 96.0617 141.223 95.2018Z" fill="white"/>
<path d="M138.661 100.655C138.655 99.3983 137.311 98.3727 136.481 97.5702C135.454 96.5906 134.257 95.4002 132.773 95.2623C132.265 95.1643 131.751 95.5392 131.653 96.0468C131.634 96.268 131.647 96.5188 131.783 96.7001C132.508 97.8854 133.891 98.4684 134.971 99.2562C135.919 99.9269 136.801 101.135 137.999 101.194C138.286 101.273 138.59 101.068 138.635 100.75C138.635 100.75 138.631 100.688 138.661 100.655Z" fill="white"/>
<path d="M160.073 150.877C151.834 149.637 144.159 146.041 137.918 140.51C131.144 134.444 126.373 126.475 121.707 118.722C121.224 117.931 120.071 118.686 120.524 119.51C125.095 127.835 129.951 136.176 137.21 142.497C143.576 148.021 151.317 151.676 159.631 153.164C161.089 153.397 161.56 151.077 160.073 150.877Z" fill="white"/>
<path d="M110.294 122.623C111.212 125.054 113.614 127.025 115.526 128.679C116.617 129.656 117.796 130.533 119.065 131.311C119.323 132.02 119.549 132.699 119.808 133.408C119.923 133.809 120.164 134.204 120.491 134.438C120.466 134.534 120.47 134.596 120.476 134.721C120.491 137.298 120.661 139.833 120.927 142.395C121.292 145.046 122.098 147.735 122.309 150.426C122.496 151.547 123.543 152.305 124.664 152.118C126.649 151.631 128.596 151.051 130.537 150.346C131.727 150.28 132.869 149.872 133.836 149.189C134.39 148.97 134.947 148.814 135.5 148.594C137.781 147.777 140.212 146.259 140.191 143.558C140.148 140.481 136.796 138.373 134.629 136.67C131.741 134.442 128.74 132.409 125.563 130.637C125.336 130.493 125.111 130.41 124.827 130.396C125.643 124.63 125.292 118.773 123.852 113.135C123.632 111.984 122.522 111.228 121.402 111.416C121.246 111.456 121.091 111.496 120.937 111.536C117.095 113.101 108.24 117.268 110.294 122.623ZM124.452 141.916C124.887 143.559 125.188 145.615 125.969 147.269C125.785 147.342 125.631 147.382 125.475 147.423C124.905 145.6 124.607 143.605 124.227 141.836C123.898 140.408 123.601 139.01 123.334 137.58C123.697 139.036 124.089 140.459 124.452 141.916ZM115.522 123.432L115.123 123.015C115.248 123.008 115.436 122.997 115.562 122.99C115.737 123.325 115.849 123.665 116.025 124.001C115.856 123.79 115.691 123.643 115.522 123.432ZM120.824 122.698C120.608 122.207 120.394 121.716 120.145 121.196C120.359 121.09 120.603 120.95 120.751 120.785C120.818 121.441 120.823 122.101 120.824 122.698ZM120.378 117.412C120.08 117.146 119.691 116.916 119.308 116.811C119.615 116.669 119.888 116.497 120.194 116.354C120.277 116.727 120.328 117.07 120.378 117.412Z" fill="#C0CFB2"/>
</g>
<defs>
<clipPath id="clip0_498_335">
<rect width="321.822" height="201.296" fill="white" transform="translate(134.295) rotate(41.8476)"/>
</clipPath>
</defs>
</svg>
