<svg width="289" height="65" viewBox="0 0 289 65" fill="none" xmlns="http://www.w3.org/2000/svg">
<g clip-path="url(#clip0_484_305)">
<path d="M1.23573 22.3283C1.81241 22.7417 2.38908 23.2379 3.04814 23.6514C4.77819 24.6438 6.67301 25.5535 8.07352 27.042C8.40305 27.3728 8.89735 27.6209 9.30927 27.869C10.2979 28.4479 11.5336 28.7786 12.1927 29.6056C13.6756 31.3423 15.9823 31.9211 17.3828 33.7405C17.5476 33.9886 17.9595 34.0713 18.2066 34.154C19.36 34.5675 20.1015 35.3944 20.9253 36.2214C21.1724 36.4695 21.4196 36.9657 21.7491 37.1311C23.5616 37.958 24.9621 39.3639 26.5273 40.6043C29.8227 43.168 33.4475 45.2354 36.9076 47.7163C37.9786 48.4606 39.2143 48.9568 40.6149 48.9568C40.6972 48.3779 40.862 47.9644 40.862 47.4682C40.6972 45.3181 40.1206 43.2507 38.9672 41.4313C38.72 41.0178 38.4729 40.6043 38.2258 40.1909C36.8252 37.1311 35.2599 34.154 33.4475 31.3423C33.2827 31.0942 33.118 30.7634 32.9532 30.5153C31.4703 27.2901 30.6465 23.8168 29.8227 20.4262C29.7403 20.1781 29.7403 19.93 29.7403 19.682C30.1522 17.1183 30.5641 14.6374 32.9532 12.9835C33.4475 12.6527 33.7771 12.1565 34.189 11.8257C35.26 10.9987 36.2486 10.1718 37.4019 9.59289C38.8848 8.76592 40.6149 8.51783 42.1801 8.84862C43.9926 9.17941 45.8874 9.84099 47.4526 10.7507C48.606 11.3295 49.677 11.6603 50.9127 11.6603C51.2423 11.9911 51.4894 12.3219 51.7366 12.6527C52.3133 13.397 52.89 13.9758 53.9609 13.8931C54.2081 13.8931 54.4552 13.9758 54.62 14.1412C55.691 14.9682 57.0091 15.2163 57.9977 16.126C58.8215 16.8702 59.8101 17.4491 60.7987 18.1107C62.6935 19.4339 64.6707 20.5916 66.4832 21.9148C68.7899 23.5687 71.0966 25.3054 73.321 27.1247C76.8634 30.0191 80.4883 32.9135 83.9484 35.9733C87.2437 38.785 90.3743 41.8448 93.6696 44.7392C95.0701 45.9797 96.7178 46.972 98.1183 48.2952C99.9307 50.1145 102.073 51.4377 104.215 52.9262C105.038 53.5051 105.945 53.8359 106.933 54.084C108.416 54.4975 109.158 53.7532 108.993 52.2647C108.91 51.6858 108.828 51.1069 108.581 50.6107C107.263 47.6336 105.945 44.5738 104.462 41.6794C103.391 39.5293 102.567 37.2965 101.661 35.0636C100.672 32.6654 99.6836 30.1845 98.1183 28.0344C97.4592 27.2074 97.1297 26.3804 96.9649 25.3881C96.7178 23.9822 96.4706 22.6591 96.2235 21.584C96.3882 20.2608 96.553 19.1858 96.7178 18.028C96.8002 17.3664 96.9649 16.7049 97.2121 16.126C97.624 15.2163 98.2007 14.3893 98.695 13.5624C99.0245 13.0662 99.2716 12.4873 99.6836 12.2392C100.755 11.4122 101.826 10.668 102.979 10.0891C104.379 9.3448 105.862 8.68323 107.428 9.67559C107.592 9.75829 107.757 9.84099 107.922 9.75829C109.405 9.26211 110.641 10.0064 111.876 10.668C112.7 11.0814 113.524 11.3295 114.348 11.743C116.078 12.57 117.973 13.3143 119.62 14.3893C121.021 15.3817 122.586 16.126 124.069 17.0356C124.563 17.2837 124.975 17.6972 125.469 18.028C126.046 18.4415 126.705 18.855 127.282 19.2685C129.506 20.6743 131.731 21.9975 133.873 23.5687C137.333 26.215 140.71 28.944 144.088 31.7557C146.724 33.9886 149.361 36.2214 151.914 38.5369C153.315 39.7774 154.715 41.1005 156.198 42.2583C157.846 43.5814 159.658 44.7392 161.059 46.3931C161.389 46.8066 161.965 47.0547 162.46 47.3855C162.789 47.6336 163.201 47.799 163.448 48.0471C165.178 49.8664 167.485 50.8588 169.462 52.3473C169.792 52.5954 170.204 52.8435 170.533 52.43C170.533 52.2647 170.615 52.0993 170.533 51.9339C169.792 50.3626 169.05 48.7914 168.309 47.3028C168.144 46.972 167.732 46.7239 167.402 46.5585C166.332 45.897 166.332 45.897 165.672 44.8219C165.92 44.7392 166.249 44.5738 166.661 44.4084C165.508 42.8372 164.354 41.2659 164.025 39.3639C164.025 39.1158 163.778 38.9504 163.695 38.7023C163.119 37.7926 162.542 36.9657 161.965 36.056C161.471 34.3194 160.4 32.9135 159.494 31.3423C158.011 28.944 156.281 26.7112 155.045 24.1476C155.045 23.3206 154.798 22.5764 154.056 22.1629C153.974 20.6743 153.315 19.5166 152.079 18.6896C151.914 18.3588 151.75 18.028 151.585 17.6972C151.338 17.2837 151.173 16.8702 150.843 16.5395C149.937 15.4644 149.443 14.3066 149.443 12.9835C149.443 12.6527 149.278 12.3219 149.196 11.9911C148.619 9.09671 149.69 6.69849 151.667 4.54837C152.903 3.22521 154.551 2.64633 155.951 1.65396C158.588 -0.248072 161.389 0.413505 164.19 0.826991C164.601 0.909689 165.096 1.24048 165.425 1.48857C165.92 1.98475 166.414 2.39824 167.155 2.39824C168.226 2.39824 168.391 3.30791 168.803 4.05218H170.698C172.263 5.04455 173.746 5.87152 175.064 6.69849C175.806 7.19468 176.547 7.69086 177.206 8.35244C178.195 9.4275 178.936 10.7507 180.666 10.8334C180.996 10.8334 181.325 11.3295 181.655 11.5776C182.891 12.4046 184.044 13.2316 185.28 14.0585C185.609 14.3066 186.103 14.3893 186.268 14.7201C187.01 15.7952 188.163 16.2087 189.316 16.6222C189.564 17.3664 189.811 18.028 190.14 18.7723C191.046 18.1107 191.788 18.2761 192.365 19.1031C192.941 19.8473 193.6 20.6743 194.259 21.3359C194.754 21.7494 195.33 22.3283 195.907 22.3283C197.06 22.411 197.637 23.0725 198.379 23.7341C200.438 25.6362 202.662 27.2901 204.887 29.0267C206.782 30.4326 208.759 31.7557 209.747 33.9886C210.736 33.6578 211.56 33.8232 212.301 34.4021C212.796 34.7328 213.208 35.1463 213.619 35.4771C214.773 36.5522 215.844 37.7099 216.997 38.785C218.068 39.8601 219.551 40.7697 220.869 41.1832C220.704 40.9351 220.622 40.687 220.457 40.5216C218.974 38.3715 217.491 36.2214 216.009 33.9886C215.432 33.1616 215.185 32.1692 214.608 31.425C212.713 28.7786 210.818 26.1323 208.841 23.486C206.946 21.0051 205.464 18.1934 203.981 15.4644C203.651 14.8855 203.486 14.2239 203.239 13.6451C202.91 12.8181 202.992 12.0738 203.322 11.2468C203.816 10.0891 204.31 9.01401 204.804 7.85625C205.216 6.94658 205.875 6.20231 206.782 5.70613C207.523 5.29264 208.347 4.79646 209.006 4.13488C209.995 3.22521 211.148 2.56363 212.301 1.90205C214.443 0.744294 216.503 0.744294 218.645 1.73666C219.551 2.15015 220.457 2.48094 221.363 2.81172C222.599 3.14251 223.917 3.556 225.153 4.13488C226.059 4.54837 226.966 4.96185 227.872 5.37534C231.002 7.11198 234.215 8.76592 237.263 10.7507C237.346 10.8334 237.428 10.8334 237.428 10.916C239.9 12.4873 242.536 13.9758 244.925 15.6298C247.149 17.1183 249.127 18.855 251.269 20.4262C251.598 20.6743 252.01 21.0051 252.34 21.2532C254.893 23.0725 257.282 24.9746 259.672 26.9593C264.532 30.9288 269.31 34.9809 273.759 39.3639C274.912 40.439 275.983 41.514 277.054 42.6718C279.526 45.2354 281.833 47.8817 284.222 50.528C285.787 52.2647 287.188 54.084 288.67 55.8206C288.918 55.9033 288.918 56.2341 289 56.3995C288.011 57.4746 287.105 58.4669 286.117 59.542C285.869 59.8728 285.54 60.1209 285.21 60.369C283.645 61.6094 282.245 61.3613 281.009 59.7901C280.515 59.1285 279.938 58.5496 279.361 57.9708C278.867 57.4746 278.29 56.9784 277.796 56.3995C276.643 55.2417 275.572 54.0013 274.501 52.7608C274.253 52.5127 274.006 52.3473 273.759 52.2647C271.864 51.2723 270.134 50.1145 268.816 48.3779C268.651 48.1298 268.322 48.0471 267.992 47.9644C266.674 47.4682 265.521 46.8066 265.109 45.2354C265.027 44.7392 264.45 44.3257 264.12 43.8295C263.049 44.4084 262.143 44.243 261.402 43.4161C260.166 42.0929 258.683 41.0178 258.106 39.1985C258.024 39.0331 257.942 38.9504 257.777 38.785C257.447 38.5369 257.035 38.2888 256.788 38.8677C256.459 39.5293 255.964 39.3639 255.552 39.1158C254.811 38.6196 254.234 37.8753 253.493 37.3792C252.175 36.3868 250.857 35.4771 249.621 34.4848C248.55 33.6578 247.561 32.7481 246.737 31.673C246.408 31.2596 245.749 31.0942 245.255 31.0115C245.007 31.0115 244.678 31.425 244.266 31.8384C244.019 31.425 243.607 31.0115 243.525 30.598C243.442 29.4402 242.618 28.696 242.042 27.869C240.476 27.7036 239.57 26.2977 238.17 25.8015C237.84 26.0496 237.593 26.2977 237.181 26.6285C237.181 26.6285 237.181 26.6285 237.099 26.7112C236.851 26.3804 236.44 26.0496 236.44 25.8015C236.522 25.2227 236.357 24.8092 235.945 24.4784C235.204 23.8995 234.462 23.2379 233.639 22.6591C232.815 22.0802 231.908 21.5013 231.249 20.6743C231.167 20.5916 231.085 20.5089 231.085 20.4262C231.002 20.2608 230.838 20.1781 230.673 20.0127C230.426 19.7647 230.096 19.5166 229.767 19.2685C229.684 19.1858 229.519 19.1858 229.355 19.1031C229.107 19.3512 228.943 19.5166 228.696 19.682C227.46 18.9377 227.46 18.9377 226.389 18.7723C226.636 19.2685 226.801 19.682 227.048 20.0954C227.46 20.8397 227.954 21.5013 228.366 22.1629C229.931 24.8919 231.414 27.6209 232.979 30.3499C233.968 32.0038 234.957 33.5751 235.369 35.4771C235.369 35.6425 235.451 35.8079 235.533 35.9733C236.192 36.9657 236.687 38.0407 237.181 39.1158C237.675 40.1909 238.087 41.3486 238.582 42.4237C239.323 43.9122 239.817 45.4835 239.982 47.0547C240.394 49.8664 240.723 52.5954 240.147 55.4071C239.9 56.7303 239.323 57.8881 238.334 58.7977C237.758 59.3766 237.099 59.8728 236.522 60.4517C235.698 61.1133 234.874 61.8575 234.05 62.5191C233.474 63.0153 232.815 63.3461 232.32 63.7596C230.838 65.1654 229.272 65.3308 227.377 64.4211C226.554 64.0077 225.812 63.5115 224.906 63.5942C224.659 63.5942 224.412 63.6769 224.164 63.8423C224 63.925 223.835 63.925 223.67 63.8423C222.27 63.0153 220.54 62.6845 219.633 61.1959C218.974 60.1209 217.986 59.3766 216.832 58.8804C216.009 58.4669 215.267 58.0535 214.361 57.64C213.784 58.3015 213.29 58.9631 212.631 59.7074C212.219 59.2112 211.972 58.8804 211.642 58.5496C211.477 58.3015 211.313 57.8881 211.066 57.8881C209.912 57.7227 209.5 56.7303 208.924 55.986C208.512 55.4898 208.1 54.9937 207.523 54.6629C206.946 54.3321 206.452 53.8359 205.958 53.4224C205.546 53.0916 205.134 52.5954 204.64 52.3473C203.404 51.7685 202.415 50.9415 201.509 50.0318C200.768 49.2876 199.944 48.5433 198.79 48.626C198.543 48.626 198.214 48.4606 197.967 48.2125C197.143 47.5509 196.401 46.8066 195.578 46.1451C195.33 45.9797 195.001 45.6489 194.754 45.7316C193.93 45.9797 193.353 45.2354 192.612 45.2354C191.129 45.3181 190.14 44.4084 189.152 43.5814C187.834 42.4237 186.68 41.1832 185.527 39.8601C184.785 38.9504 184.126 38.0407 183.055 37.4619C182.396 37.1311 182.067 36.4695 182.231 35.8079C182.561 34.6501 182.067 33.6578 181.49 32.7481C181.078 32.0038 180.749 31.0942 179.925 30.598C179.678 30.4326 179.678 29.8537 180.337 29.6883C181.408 30.6807 182.479 31.5904 183.138 32.9962C183.385 33.6578 184.044 34.0713 184.538 34.6501C184.456 34.4021 184.456 34.0713 184.291 33.8232C183.55 32.5 183.055 31.0942 182.067 29.8537C181.325 28.8613 181.49 28.6133 182.643 27.7863C182.973 27.6209 183.302 27.4555 183.797 27.2074C183.302 26.7112 182.973 26.3804 182.643 26.0496C181.572 25.0573 180.337 24.2303 179.513 22.9071C179.43 22.8244 179.513 22.5764 179.513 22.4937C179.76 22.4937 180.09 22.411 180.749 22.411C180.172 21.9975 179.842 21.6667 179.513 21.5013C178.442 21.1705 177.371 20.8397 176.217 20.5916C175.394 20.4262 174.817 20.1781 174.817 19.1858C174.817 19.0204 174.57 18.855 174.323 18.6069C174.076 19.0204 173.828 19.4339 173.664 19.7646C174.652 20.6743 175.558 21.584 176.547 22.411C177.783 23.4033 178.277 24.7265 178.195 26.2977C178.112 26.8766 178.195 27.4555 178.277 28.0344C178.524 29.2748 178.771 30.5153 179.019 31.9211C178.524 31.673 178.112 31.425 177.783 31.425C177.453 31.425 177.041 31.5904 176.547 31.673C176.3 30.8461 175.806 30.1018 175.888 29.5229C176.3 28.1171 175.394 27.3728 174.652 26.5458C173.911 25.7188 173.005 24.9746 172.181 24.1476C172.098 24.0649 172.181 23.8995 172.181 23.7341C172.675 23.8168 173.087 23.8995 173.581 23.9822C173.499 23.1552 173.499 22.411 173.416 21.6667C173.334 21.3359 173.169 20.8397 172.593 21.0051C172.675 21.5013 172.675 21.9975 172.675 22.4937C172.675 22.5764 172.593 22.5764 172.428 22.7417C171.604 22.4937 171.11 21.9148 170.78 21.2532C171.027 20.8397 171.192 20.5089 171.439 20.1781C171.027 19.5993 170.615 19.1031 170.204 18.6069C169.792 18.4415 169.297 18.3588 168.968 18.028C168.309 17.5318 167.814 17.6145 167.32 18.1107C167.238 20.5916 168.144 22.5764 170.286 23.8995C170.698 24.1476 171.275 24.3957 171.439 24.8092C172.016 26.1323 172.922 27.042 173.993 28.2825C173.252 28.6133 172.675 28.8613 172.098 29.1094C172.593 30.2672 173.087 31.3423 173.499 32.5C174.076 34.0713 174.652 35.5598 175.064 37.2138C175.394 38.8677 176.053 40.439 176.794 42.0102C176.877 42.2583 176.959 42.5064 176.959 42.7545C177.288 44.9873 177.618 47.3028 177.865 49.6183C177.948 50.0318 177.783 50.4453 177.7 50.8588C177.536 51.7685 177.371 52.6781 177.206 53.5051C176.877 54.7456 176.547 55.9033 175.558 56.7303C174.899 57.3092 174.076 57.7227 173.581 58.5496C173.005 59.542 171.686 58.8804 170.863 59.4593C170.533 59.7074 170.121 59.7901 169.792 60.0382C168.721 59.7901 167.732 59.4593 166.743 59.2112C165.59 59.9555 165.178 60.0382 164.354 59.542C163.942 59.2939 163.613 58.8804 163.201 58.6323C162.624 58.2189 161.965 57.8881 161.306 57.5573C159.823 56.813 158.258 56.0687 156.693 55.2418C156.363 55.0764 155.951 54.8283 155.704 54.4975C154.304 52.5127 152.079 51.4377 150.267 49.9491C150.102 49.7837 149.855 49.6183 149.608 49.6183C148.372 49.7837 147.713 48.7914 146.889 48.2125C146.395 47.8817 145.818 47.3855 145.159 47.3028C142.852 47.0547 141.205 45.7316 139.639 44.3257C138.568 43.4161 137.58 42.4237 136.509 41.514C136.426 41.4313 136.179 41.4313 136.015 41.4313C135.767 41.6794 135.52 42.0102 135.108 42.4237C134.861 42.0102 134.532 41.6794 134.532 41.3486C134.614 40.5216 134.284 39.9428 133.708 39.3639C131.895 37.7926 130.248 36.1387 128.353 34.6501C127.529 33.9886 126.87 33.4097 126.705 32.3346C126.623 31.7557 126.458 31.1769 125.717 31.0942C125.387 31.3423 125.058 31.5904 124.646 31.8384C124.316 31.5077 123.822 31.1769 123.657 30.7634C123.328 29.4402 122.421 28.5306 121.68 27.3728C121.433 27.042 121.103 26.7112 121.103 26.2977C121.021 24.7265 119.538 24.0649 118.879 22.8244C118.796 22.6591 118.22 22.5764 117.973 22.7417C117.725 22.8244 117.561 23.2379 117.561 23.486C117.478 23.7341 117.89 24.0649 117.561 24.3957C116.737 24.5611 116.078 24.313 115.913 23.4033C115.831 22.9898 115.666 22.5764 115.748 22.2456C115.831 21.6667 115.666 21.3359 115.336 20.9224C114.842 20.1781 114.183 20.0127 113.359 19.682C112.7 19.4339 112.288 18.5242 111.794 17.9453C111.711 17.8626 111.629 17.8626 111.547 17.8626C110.723 17.9453 110.229 17.3664 109.57 16.9529C108.499 16.3741 107.428 15.6298 106.357 15.1336C105.698 14.8028 104.956 14.6374 104.215 15.4644C104.297 17.3664 104.297 19.4339 105.038 21.3359C106.851 26.0496 108.663 30.6807 110.229 35.4771C111.876 40.439 112.947 45.4008 112.7 50.6934C112.535 54.084 110.888 56.3995 108.169 58.1362C106.851 58.9631 105.533 59.8728 103.803 59.6247C101.743 59.2939 99.6836 58.715 97.624 58.3015C97.5416 58.3015 97.4592 58.2189 97.3768 58.2189C95.3173 57.2265 93.5048 55.7379 91.3629 54.9937C91.1157 54.911 90.951 54.5802 90.7038 54.3321C90.4567 54.084 90.3743 53.6705 90.1271 53.5878C87.8204 52.8435 86.3375 50.528 83.866 50.1972C83.6189 50.1972 83.3717 49.7837 83.1246 49.6183C82.795 49.3702 82.6303 48.8741 82.2183 48.7914C80.5707 48.2952 79.5821 46.972 78.4287 45.8143C78.1816 45.5662 77.7697 45.5662 77.3577 45.4835C77.4401 45.7316 77.5225 46.0624 77.6049 46.3105C77.0282 46.5585 76.7811 46.2278 76.4515 45.897C75.6277 45.1527 74.8862 44.4911 74.0624 43.8295C72.7443 42.6718 71.0966 41.7621 70.108 40.1909C69.9432 40.0255 69.7785 39.8601 69.5313 39.6947C67.6365 38.2888 65.7417 36.883 63.8469 35.3944C62.4464 34.3194 61.1282 33.2443 59.8101 32.1692C58.9863 31.5077 58.1625 30.7634 57.421 30.1018C57.3386 30.0191 57.2563 29.771 57.1739 29.6056C57.421 29.2748 57.5858 28.8613 57.8329 28.5306C57.3386 27.2901 55.7733 27.2901 55.279 25.7188C55.8557 26.1323 56.1029 26.3804 56.4324 26.5458C56.762 26.7112 57.1739 26.7939 57.8329 27.042C57.0091 25.2227 56.0205 24.4784 54.3729 24.3957C54.3729 25.4708 54.62 26.3804 53.549 27.4555C54.0433 25.7189 52.5604 24.6438 53.0547 23.1552C53.1371 22.9898 52.7252 22.5764 52.478 22.411C51.819 21.9148 50.9951 21.6667 50.4184 21.1705C49.7594 20.6743 49.1827 19.8473 48.3589 19.5166C48.1117 19.4339 47.8646 19.4339 47.6174 19.3512C47.2879 19.5993 47.0407 19.8473 46.7112 20.1781C46.7936 20.4262 46.9584 20.757 47.1231 21.3359C46.1345 20.8397 45.3931 20.5089 44.6516 20.1781C43.9926 19.8473 43.3335 19.5993 42.8392 18.9377C41.933 17.7799 40.7796 17.7799 39.5439 18.4415C39.132 19.3512 39.2143 20.1781 39.4615 21.0878C39.7086 21.9975 39.9558 22.8244 40.0382 23.7341C40.1205 25.0573 40.5325 26.2977 41.0268 27.5382C42.8392 32.1692 43.4983 37.0484 44.3221 41.9275C44.6516 44.0776 44.4869 46.1451 44.2397 48.2952C43.9926 51.0242 42.0154 52.5127 40.4501 54.3321C40.2853 54.5802 39.8734 54.6629 39.5439 54.6629C38.2258 54.911 36.99 55.1591 35.6719 55.1591C34.5185 55.1591 33.0356 55.4898 32.1294 54.4975C31.3056 53.5051 30.2346 53.257 29.1636 53.0089C28.0926 52.7608 27.104 52.5954 26.2802 51.7685C25.9507 51.4377 25.374 51.1896 24.9621 51.1896C23.1496 51.1069 21.8315 49.8664 20.3486 49.1222C18.7833 48.3779 17.4652 47.0547 16.0647 45.9797C15.8999 45.8143 15.6528 45.8143 15.4056 45.8143C15.0761 46.2278 14.7466 46.5585 14.3346 46.8893C13.5932 46.3932 12.7694 45.9797 12.1927 45.4835C11.5336 44.9046 11.2041 43.9122 10.4626 43.4161C9.80356 42.9199 8.81497 43.0853 8.07352 42.5064C6.26109 41.1005 4.36627 39.7774 2.55384 38.3715C2.30669 38.2061 2.05956 37.8753 1.97717 37.6272C1.73002 36.883 1.15333 36.7176 0.494262 36.5522C0.247112 36.4695 -2.69865e-05 36.1387 -0.164793 35.9733C0.576655 35.5598 0.659033 35.3117 0.164734 34.8982C-0.0824152 34.7328 -0.329565 34.6501 -0.659097 34.4848V21.6667C-0.576714 21.6667 -0.494316 21.7494 -0.411933 21.7494C0.576665 21.7494 0.906198 22.1629 1.23573 22.3283ZM227.295 17.1183C227.377 17.0356 227.46 16.8702 227.46 16.7876C227.377 16.7049 227.295 16.6222 227.13 16.5395C227.048 16.6222 226.965 16.7876 226.965 16.8702C227.048 16.9529 227.13 17.0356 227.295 17.1183ZM228.284 15.5471C228.036 13.8931 226.883 13.8931 225.812 14.0585C226.554 14.7201 227.213 15.3817 228.284 15.5471ZM222.599 12.1565L222.434 12.0738C222.434 12.2392 222.599 12.1565 222.599 12.1565ZM212.301 52.3473C212.548 52.5127 212.796 52.5954 213.125 52.6781L213.208 52.5127C212.96 52.2647 212.796 52.0993 212.548 51.9339C212.548 51.9339 212.384 51.9339 212.137 51.9339C212.301 52.182 212.301 52.2647 212.301 52.3473ZM211.066 56.7303C211.066 56.6476 211.148 56.5649 211.148 56.4822C211.148 56.4822 211.066 56.3995 210.983 56.3995C210.983 56.4822 210.983 56.4822 210.901 56.5649C210.983 56.6476 210.983 56.6476 211.066 56.7303ZM205.793 46.7239C206.946 45.9797 206.946 45.8143 205.793 44.9873V46.7239ZM199.779 42.341C199.779 42.1756 199.614 42.2583 199.614 42.2583L199.779 42.341ZM193.518 36.3041C193.353 36.3041 193.271 36.3041 193.106 36.3041C193.188 36.4695 193.188 36.5522 193.271 36.7176C193.353 36.6349 193.518 36.6349 193.6 36.5522C193.6 36.4695 193.6 36.3041 193.518 36.3041ZM194.095 39.6947C193.518 38.6196 193.024 38.0407 192.117 37.4619C192.2 38.8677 193.024 39.0331 194.095 39.6947ZM188.987 33.9059C189.069 33.8232 189.152 33.6578 189.316 33.4924C189.152 33.327 189.069 33.1616 188.904 33.0789C188.822 33.2443 188.575 33.4097 188.575 33.4924C188.657 33.6578 188.822 33.7405 188.987 33.9059ZM188.657 30.8461C188.74 30.7634 188.904 30.6807 188.987 30.598C188.987 30.5153 188.904 30.3499 188.74 30.2672C188.657 30.2672 188.493 30.3499 188.41 30.4326C188.493 30.6807 188.575 30.7634 188.657 30.8461ZM187.916 37.5446C187.998 37.5446 188.081 37.4619 188.081 37.4619C187.998 37.3792 187.916 37.2138 187.916 37.1311C187.834 37.2138 187.669 37.2965 187.586 37.3792C187.751 37.3792 187.834 37.4619 187.916 37.5446ZM182.726 24.3957C182.726 24.313 182.808 24.2303 182.808 24.2303C182.726 24.1476 182.643 24.0649 182.561 23.9822C182.561 24.0649 182.479 24.1476 182.479 24.1476C182.561 24.2303 182.643 24.313 182.726 24.3957ZM167.732 17.7799C167.485 17.4491 167.155 17.1183 166.743 16.6222C166.743 17.6145 167.238 17.6972 167.732 17.7799ZM169.38 17.0356C169.874 17.3664 170.286 17.9453 170.698 18.3588C171.274 18.5242 171.934 18.6896 172.593 18.7723C172.757 16.2914 171.686 14.9682 168.556 13.5624C168.473 13.8931 168.309 14.3066 168.144 14.8028C167.155 14.0585 166.496 13.2316 166.249 12.0738C166.002 10.9161 166.002 10.9987 164.931 11.0814C164.354 11.1641 163.86 11.1641 163.201 11.2468C163.448 12.57 164.107 13.397 165.096 14.0585C166.579 15.0509 168.062 15.9606 169.38 17.0356ZM125.552 28.1998C125.717 28.2825 125.964 28.3652 126.129 28.4479C126.211 28.2825 126.293 28.1171 126.293 28.0344C126.129 27.869 125.881 27.7036 125.634 27.5382C125.552 27.7036 125.552 27.7863 125.469 27.9517C125.469 28.0344 125.552 28.1998 125.552 28.1998ZM77.9344 45.07C77.9344 44.4911 77.6873 43.9949 76.8634 44.0776C77.193 44.4084 77.6049 44.7392 77.9344 45.07ZM59.7278 29.8537C59.9749 30.1018 60.3044 30.1845 60.6339 30.4326C60.7163 30.2672 60.8811 30.1845 60.9635 30.0191C60.7164 29.771 60.4692 29.4402 60.222 29.1921C60.0573 29.1094 59.8101 29.1921 59.6454 29.1921C59.6454 29.4402 59.563 29.6883 59.7278 29.8537ZM47.3703 19.8473C47.5351 19.1031 47.2879 18.6069 46.4641 18.3588C46.4641 19.0204 46.7936 19.5166 47.3703 19.8473ZM46.3817 18.3588C45.9698 18.1934 45.4755 18.028 45.3107 18.855C45.7226 18.6069 46.0521 18.4415 46.3817 18.3588ZM40.3677 16.6222C40.3677 16.7049 40.5325 16.7049 40.5325 16.7049C40.5325 16.6222 40.5325 16.4568 40.5325 16.3741L40.3677 16.4568C40.3677 16.4568 40.3677 16.5395 40.3677 16.6222Z" fill="#F1EBE1"/>
</g>
<defs>
<clipPath id="clip0_484_305">
<rect width="289" height="65" fill="white" transform="matrix(-1 0 0 1 289 0)"/>
</clipPath>
</defs>
</svg>
