<svg width="383" height="397" viewBox="0 0 383 397" fill="none" xmlns="http://www.w3.org/2000/svg">
<g clip-path="url(#clip0_500_362)">
<path d="M180.674 275.148C201.52 262.055 213.216 238.323 207.86 213.821C203.23 192.617 187.469 177.357 165.471 176.327C142.764 175.263 119.745 188.188 112.066 210.179C105.413 229.216 111.46 250.118 125.201 264.407C139.693 279.478 161.822 285.837 180.678 275.162C182.872 273.914 180.672 270.677 178.49 271.909C158.9 283.01 135.874 273.194 123.328 256.167C107.979 235.323 110.3 205.446 132.125 189.856C152.922 174.995 184.829 176.497 198.386 199.935C213.242 225.564 202.729 256.694 178.49 271.909C176.344 273.241 178.541 276.482 180.674 275.148Z" fill="#F1EBE1"/>
<path d="M178.026 272.291C175.812 270.254 173.5 268.337 171.09 266.537C168.679 264.738 166.183 263.066 163.601 261.523C161.019 259.979 158.366 258.573 155.64 257.3C152.914 256.029 150.13 254.9 147.287 253.913C140.292 251.527 127.325 246.37 120.938 252.029C119.075 253.68 121.241 256.949 123.127 255.282C126.529 252.258 135.214 254.595 139.276 255.604C144.185 256.833 148.94 258.497 153.543 260.598C157.553 262.462 161.397 264.624 165.074 267.082C168.751 269.541 172.217 272.269 175.474 275.263C177.335 276.958 179.888 273.985 178.018 272.301L178.026 272.291Z" fill="#F1EBE1"/>
<path d="M188.036 265.866C176.048 254.128 160.879 247.502 145.174 242.207C134.54 238.617 123.545 235.307 112.993 240.676C110.749 241.821 112.96 245.057 115.182 243.928C126.671 238.078 141.228 244.678 152.205 248.847C164.527 253.526 175.997 259.549 185.479 268.843C187.278 270.611 189.822 267.631 188.023 265.88L188.036 265.866Z" fill="#F1EBE1"/>
<path d="M172.548 179.985C173.159 182.956 173.669 185.943 174.08 188.949C174.49 191.953 174.798 194.969 175.005 197.994C175.212 201.021 175.317 204.05 175.32 207.083C175.323 210.116 175.223 213.146 175.022 216.173C174.82 219.199 174.518 222.215 174.113 225.221C173.709 228.228 173.203 231.217 172.599 234.189C171.992 237.161 171.287 240.11 170.483 243.034C169.679 245.96 168.776 248.855 167.777 251.718C166.954 254.075 170.497 255.77 171.322 253.391C172.358 250.452 173.295 247.481 174.13 244.478C174.966 241.476 175.699 238.448 176.33 235.397C176.961 232.346 177.489 229.275 177.914 226.189C178.338 223.101 178.659 220.003 178.875 216.895C179.09 213.787 179.201 210.674 179.207 207.558C179.212 204.442 179.114 201.33 178.91 198.219C178.706 195.111 178.398 192.013 177.984 188.924C177.572 185.836 177.055 182.765 176.435 179.712C175.951 177.279 172.031 177.542 172.531 180.005L172.548 179.985Z" fill="#F1EBE1"/>
<path d="M161.442 179C164.335 201.697 166.994 225.447 156.811 246.788C155.723 249.053 159.265 250.739 160.356 248.46C170.837 226.473 168.325 202.112 165.341 178.703C165.023 176.208 161.118 176.492 161.442 179Z" fill="#F1EBE1"/>
<path d="M148.938 180.093C150.525 190.452 151.233 200.874 151.068 211.355C150.901 221.835 149.86 232.23 147.945 242.537C147.482 245.012 151.337 245.724 151.778 243.255C152.753 238.029 153.507 232.771 154.04 227.481C154.574 222.192 154.884 216.89 154.971 211.574C155.06 206.26 154.924 200.951 154.566 195.647C154.206 190.343 153.626 185.065 152.825 179.81C152.453 177.328 148.543 177.608 148.925 180.108L148.938 180.093Z" fill="#F1EBE1"/>
<path d="M149.609 229.287C146.722 228.575 143.801 228.051 140.846 227.719C137.891 227.387 134.926 227.246 131.952 227.299C128.979 227.351 126.021 227.597 123.079 228.035C120.137 228.471 117.235 229.097 114.375 229.912C111.939 230.592 113.229 234.291 115.669 233.597C118.37 232.837 121.111 232.255 123.888 231.853C126.665 231.449 129.458 231.228 132.263 231.188C135.07 231.149 137.866 231.291 140.654 231.616C143.441 231.941 146.196 232.445 148.917 233.128C151.367 233.73 152.067 229.879 149.642 229.289L149.609 229.287Z" fill="#F1EBE1"/>
<path d="M152.048 217.534C150.41 217.141 148.759 216.819 147.094 216.567C145.43 216.315 143.758 216.134 142.078 216.024C140.397 215.914 138.716 215.876 137.032 215.909C135.348 215.942 133.67 216.046 131.994 216.222C130.32 216.397 128.656 216.644 127.002 216.962C125.348 217.278 123.711 217.666 122.09 218.122C120.469 218.578 118.871 219.103 117.294 219.695C115.718 220.287 114.169 220.945 112.649 221.67C110.395 222.736 111.649 226.447 113.937 225.35C115.38 224.658 116.849 224.029 118.346 223.462C119.841 222.895 121.359 222.393 122.898 221.956C124.438 221.518 125.993 221.148 127.562 220.843C129.133 220.538 130.714 220.302 132.305 220.132C133.894 219.963 135.49 219.862 137.089 219.829C138.688 219.796 140.286 219.831 141.882 219.935C143.478 220.037 145.067 220.208 146.649 220.448C148.23 220.686 149.798 220.992 151.354 221.366C153.811 221.949 154.519 218.079 152.074 217.532L152.048 217.534Z" fill="#F1EBE1"/>
<path d="M162.993 264.099C162.275 265.242 161.467 266.315 160.564 267.319C159.663 268.324 158.681 269.242 157.621 270.076C156.56 270.91 155.436 271.647 154.248 272.288C153.06 272.928 151.826 273.461 150.547 273.888C148.139 274.696 149.435 278.408 151.835 277.568C153.358 277.05 154.824 276.404 156.234 275.628C157.643 274.853 158.976 273.962 160.23 272.954C161.485 271.948 162.642 270.84 163.704 269.631C164.766 268.422 165.715 267.13 166.55 265.756C167.884 263.624 164.327 261.967 163.006 264.084L162.993 264.099Z" fill="#F1EBE1"/>
<path d="M151.61 258.124C150.746 259.44 149.79 260.685 148.743 261.859C147.695 263.034 146.567 264.126 145.358 265.134C144.149 266.142 142.873 267.056 141.53 267.876C140.187 268.697 138.79 269.414 137.341 270.027C135.03 271.012 136.293 274.722 138.634 273.713C140.246 273.046 141.799 272.265 143.296 271.37C144.793 270.476 146.216 269.476 147.567 268.373C148.917 267.268 150.18 266.072 151.354 264.783C152.528 263.494 153.603 262.127 154.577 260.68C155.97 258.609 153.017 256.037 151.617 258.138L151.61 258.124Z" fill="#F1EBE1"/>
<path d="M140.427 253.727C140.152 254.243 139.845 254.74 139.506 255.218C139.168 255.695 138.799 256.148 138.403 256.578C138.006 257.008 137.583 257.411 137.135 257.787C136.686 258.162 136.216 258.507 135.723 258.823C135.23 259.138 134.719 259.421 134.19 259.67C133.661 259.92 133.118 260.135 132.561 260.315C132.005 260.495 131.439 260.639 130.864 260.746C130.289 260.854 129.709 260.923 129.125 260.956C126.61 261.129 126.892 265.043 129.42 264.856C130.175 264.806 130.923 264.708 131.664 264.562C132.407 264.416 133.136 264.224 133.854 263.984C134.571 263.745 135.272 263.462 135.953 263.133C136.634 262.804 137.292 262.435 137.926 262.021C138.56 261.609 139.165 261.157 139.741 260.667C140.317 260.178 140.86 259.653 141.369 259.093C141.879 258.533 142.35 257.944 142.784 257.324C143.218 256.704 143.61 256.06 143.962 255.391C145.155 253.173 141.61 251.5 140.417 253.718L140.427 253.727Z" fill="#F1EBE1"/>
<path d="M195.625 257.069C194.09 255.39 192.457 253.812 190.725 252.337C188.993 250.861 187.176 249.501 185.273 248.252C183.37 247.005 181.398 245.881 179.354 244.88C177.311 243.879 175.213 243.01 173.061 242.273C170.705 241.451 169.012 244.99 171.391 245.814C173.459 246.523 175.476 247.358 177.44 248.32C179.404 249.281 181.3 250.362 183.129 251.562C184.956 252.761 186.703 254.071 188.366 255.49C190.03 256.909 191.599 258.426 193.072 260.042C194.776 261.892 197.314 258.906 195.617 257.079L195.625 257.069Z" fill="#F1EBE1"/>
<path d="M201.854 246.282C193.865 240.461 185.332 235.591 176.255 231.675C173.946 230.679 172.24 234.233 174.585 235.217C183.347 238.976 191.586 243.655 199.301 249.254C201.323 250.725 203.89 247.764 201.846 246.291L201.854 246.282Z" fill="#F1EBE1"/>
<path d="M187.38 187.592C187.627 195.385 187.216 203.142 186.147 210.865C185.078 218.588 183.368 226.167 181.015 233.6C180.259 235.997 184.117 236.686 184.853 234.323C187.246 226.723 188.984 218.978 190.065 211.085C191.145 203.192 191.554 195.265 191.289 187.304C191.213 184.777 187.306 185.083 187.39 187.601L187.38 187.592Z" fill="#F1EBE1"/>
<path d="M198.851 205.183C198.742 208.337 198.444 211.473 197.957 214.592C197.47 217.709 196.799 220.788 195.943 223.826C195.086 226.864 194.052 229.84 192.838 232.753C191.625 235.668 190.241 238.498 188.688 241.246C187.457 243.448 191.002 245.112 192.228 242.914C193.852 240.013 195.296 237.027 196.561 233.953C197.825 230.879 198.902 227.741 199.789 224.538C200.675 221.335 201.368 218.09 201.865 214.805C202.362 211.519 202.661 208.216 202.76 204.894C202.838 202.388 198.941 202.694 198.857 205.187L198.851 205.183Z" fill="#F1EBE1"/>
<path d="M150.618 204.493C144.759 204.31 138.914 204.526 133.083 205.14C127.253 205.754 121.491 206.76 115.797 208.159C113.347 208.757 114.641 212.451 117.087 211.84C122.623 210.497 128.224 209.535 133.891 208.954C139.558 208.374 145.237 208.18 150.929 208.372C153.435 208.449 153.132 204.551 150.63 204.47L150.618 204.493Z" fill="#F1EBE1"/>
<path d="M138.219 184.639C138.703 186.175 139.091 187.737 139.38 189.324C139.669 190.91 139.859 192.506 139.947 194.116C140.037 195.726 140.026 197.335 139.915 198.944C139.803 200.552 139.591 202.147 139.28 203.729C138.797 206.206 142.648 206.913 143.118 204.451C143.457 202.705 143.687 200.943 143.807 199.167C143.929 197.391 143.937 195.615 143.834 193.838C143.733 192.062 143.52 190.298 143.198 188.548C142.874 186.798 142.445 185.075 141.907 183.379C141.147 180.969 137.447 182.252 138.226 184.671L138.219 184.639Z" fill="#F1EBE1"/>
<path d="M127.523 191.89C128.226 193.939 128.634 196.046 128.747 198.209C128.861 200.371 128.675 202.509 128.19 204.621C127.638 207.081 131.479 207.779 132.028 205.343C132.301 204.127 132.489 202.898 132.593 201.656C132.697 200.415 132.714 199.172 132.645 197.927C132.576 196.684 132.422 195.451 132.183 194.227C131.943 193.004 131.621 191.805 131.216 190.627C130.41 188.219 126.693 189.522 127.53 191.922L127.523 191.89Z" fill="#F1EBE1"/>
<mask id="mask0_500_362" style="mask-type:luminance" maskUnits="userSpaceOnUse" x="187" y="99" width="130" height="136">
<path d="M316.304 138.039L233.121 234.898L187.993 196.141L271.176 99.2827L316.304 138.039Z" fill="white"/>
</mask>
<g mask="url(#mask0_500_362)">
<path d="M312.542 134.808C296.308 120.866 270.116 120.086 258.98 140.429C252.62 152.04 244.365 180.408 258.808 189.757C271.964 198.268 278.346 181.982 274.733 171.605C267.543 151.026 244.56 148.575 227.077 157.102C209.595 165.629 198.292 184.91 198.96 204.436C199.051 206.958 202.953 206.656 202.869 204.138C202.321 188.225 210.723 171.703 224.128 163.2C234.079 156.887 247.855 152.975 258.933 158.773C266.102 162.546 272.159 170.638 272.263 178.981C272.375 188.196 262.329 190.988 257.705 182.616C253.569 175.143 255.155 164.521 257.056 156.647C259.144 147.777 263.062 137.414 271.1 132.308C283.345 124.549 299.714 128.939 309.997 137.77C311.911 139.414 314.455 136.451 312.542 134.808Z" fill="#F1EBE1"/>
</g>
<path d="M138.001 292.042C136.484 291.422 135.002 290.733 133.551 289.973C132.101 289.213 130.689 288.386 129.317 287.492C127.945 286.599 126.619 285.643 125.336 284.625C124.055 283.605 122.825 282.528 121.644 281.392C120.465 280.256 119.342 279.068 118.274 277.827C117.207 276.584 116.201 275.295 115.256 273.958C114.31 272.621 113.431 271.243 112.616 269.821C111.801 268.401 111.055 266.945 110.378 265.454C109.33 263.182 105.619 264.448 106.693 266.75C107.415 268.363 108.212 269.939 109.083 271.476C109.954 273.013 110.896 274.507 111.909 275.955C112.922 277.402 114 278.8 115.145 280.146C116.289 281.492 117.494 282.781 118.762 284.013C120.028 285.245 121.35 286.415 122.726 287.522C124.104 288.629 125.531 289.669 127.005 290.641C128.481 291.613 130 292.513 131.561 293.342C133.122 294.17 134.718 294.923 136.349 295.601C138.662 296.573 140.354 293.035 138.02 292.059L138.001 292.042Z" fill="#F1EBE1"/>
<path d="M120.533 299.174C118.571 297.739 116.804 296.094 115.231 294.242C113.657 292.389 112.322 290.379 111.223 288.211C110.07 285.969 106.832 288.182 107.974 290.396C109.161 292.718 110.6 294.872 112.29 296.857C113.98 298.842 115.876 300.605 117.98 302.147C119.993 303.635 122.56 300.676 120.524 299.184L120.533 299.174Z" fill="#F1EBE1"/>
</g>
<defs>
<clipPath id="clip0_500_362">
<rect width="340.137" height="212.45" fill="white" transform="translate(382.777 138.415) rotate(130.656)"/>
</clipPath>
</defs>
</svg>
